<svg id="Capa_1" enable-background="new 0 0 512.024 512.024" height="512" viewBox="0 0 512.024 512.024" width="512" xmlns="http://www.w3.org/2000/svg"><g><path d="m329.225 269.362 46.641-110.481c1.611-3.816-.176-8.216-3.992-9.826-3.813-1.612-8.215.176-9.826 3.992l-41.556 98.436c-2.888-6.36-64.201-141.361-67.066-147.668l165.511-85.525-43.258 102.47c-1.611 3.816.176 8.216 3.992 9.826 3.815 1.611 8.214-.177 9.826-3.992l46.273-109.613c4.436-10.506-6.705-20.805-16.833-15.577l-178.732 92.358c-1.537.796-2.802 2.156-3.479 3.775l-48.097 115.308-19.601-24.317-.001-.001c-2.327-2.886-5.787-4.54-9.493-4.54h-95.359c-3.302 0-6.268 2.207-7.2 5.4l-25.547 87.589c-1.496 5.131.482 10.575 4.924 13.548 4.422 2.961 10.209 2.741 14.401-.611l34.322-27.458 42.178 103.208c.799 1.997 2.63 3.749 4.985 4.403l98.742 26.69c3.995 1.076 8.116-1.285 9.197-5.283 1.081-3.999-1.284-8.116-5.283-9.197l-79.651-21.53 160.749-79.841c1.938 6.828 36.252 127.745 37.895 133.534l-85.029-22.983c-3.995-1.077-8.116 1.283-9.197 5.283-1.081 3.999 1.284 8.116 5.283 9.197l93.719 25.333 13.562 47.79c1.165 4.098 4.306 7.238 8.402 8.399l84.916 24.09c4.973 1.411 10.152-.379 13.192-4.561 3.04-4.183 3.146-9.66.269-13.956zm-180.374 77.812 48.77-116.922v-.001l46.319-111.045c3.094 6.812 63.884 140.662 66.977 147.473l-11.902 5.912zm9.341-148.187 23.866 29.608c-.522 1.25-46.602 111.726-47.792 114.579l-58.924-144.187zm-109.879 73.668 17.046-58.443 13.8 33.768zm337.913 200.801c-1.867-6.58-43.286-152.531-45.316-159.685l121.382 181.264z"/></g></svg>